<svg width="25" height="25" viewBox="0 0 25 25" fill="none" xmlns="http://www.w3.org/2000/svg">
<path d="M8.17609 6.6809C8.82177 6.6809 9.42795 6.41223 9.88415 5.92494C10.8256 4.91797 10.8256 3.27886 9.88415 2.27189C9.42795 1.78396 8.82138 1.51592 8.17609 1.51592C7.5308 1.51592 6.92423 1.78438 6.46803 2.27189C5.52653 3.27928 5.52653 4.91797 6.46803 5.92494C6.92384 6.41223 7.53041 6.6809 8.17609 6.6809ZM7.03725 2.88027C7.34113 2.55506 7.74583 2.37637 8.17609 2.37637C8.60635 2.37637 9.01086 2.55548 9.31493 2.88027C9.94292 3.55194 9.94292 4.64447 9.31493 5.31571C8.70699 5.96593 7.6452 5.96593 7.03725 5.31571C6.40926 4.64447 6.40926 3.55194 7.03725 2.88027Z" fill="#505050"/>
<path d="M3.6225 12.8428C4.59014 12.8428 5.5 12.4394 6.18381 11.708C6.58635 11.2774 6.87981 10.7616 7.05533 10.2007L11.6005 15.0623C11.6042 15.0665 11.6054 15.0718 11.6089 15.076C11.6127 15.0804 11.6178 15.0817 11.6219 15.085L12.3621 15.8769L5.55189 23.1629C5.15976 23.5823 5.15897 24.2651 5.55071 24.684C5.74117 24.888 5.99394 25 6.26322 25C6.53211 25 6.78448 24.888 6.97494 24.6849L13.7852 17.3979L19.7166 23.7418L19.7211 23.745C19.7258 23.7509 19.7274 23.7578 19.7323 23.7635C20.2359 24.3025 20.8723 24.5806 21.5744 24.5806C21.8345 24.5806 22.1034 24.5423 22.3782 24.4648C22.5183 24.4252 22.6278 24.3086 22.6649 24.1583C22.933 23.0725 22.6999 22.0672 22.009 21.3278C22.0059 21.3245 22.0014 21.3232 21.9982 21.32C21.9951 21.3163 21.9943 21.3116 21.9909 21.3085L16.0591 14.9646L24.5068 5.92494C24.5133 5.91885 24.5214 5.91674 24.5275 5.91023C24.8321 5.5848 25 5.15216 25 4.69198C25.0004 4.23159 24.8325 3.79853 24.5275 3.47268C24.5234 3.46869 24.5186 3.46743 24.5149 3.46364L21.3989 0.126134C21.3203 0.0416242 21.2169 0 21.1139 0C21.0732 0 21.0337 0.0115623 20.9942 0.0248064C20.9842 0.0283802 20.9726 0.0271188 20.9626 0.0317438C20.9569 0.033846 20.9531 0.039522 20.948 0.0420447C20.9054 0.0628569 20.8643 0.0885041 20.8293 0.126134L19.9731 1.04187C19.8157 1.21005 19.8157 1.48229 19.9731 1.65068L22.8163 4.69114L22.5317 4.99533L19.6881 1.95445C19.5307 1.78627 19.2763 1.78627 19.1189 1.95445C18.9614 2.12284 18.9614 2.3955 19.1189 2.56326L21.9624 5.60414L21.6778 5.90896L18.8343 2.86808C18.6768 2.6999 18.4225 2.6999 18.2651 2.86808C18.1076 3.03647 18.1076 3.30892 18.2651 3.47689L21.1086 6.51777L20.8236 6.8226L17.9804 3.78171C17.823 3.61332 17.5687 3.61332 17.4112 3.78171C17.2538 3.9501 17.2538 4.22213 17.4112 4.39052L20.2544 7.4314L19.9694 7.73623L17.1262 4.6945C16.9688 4.52611 16.7144 4.52611 16.557 4.6945C16.3997 4.86247 16.3997 5.13492 16.557 5.30331L19.4002 8.34504L19.1155 8.64944L16.272 5.60856C16.1147 5.44017 15.8602 5.44017 15.7028 5.60856C15.5455 5.77694 15.5455 6.04939 15.7028 6.21736L18.5465 9.25825L18.2619 9.56307L15.4182 6.52219C15.2609 6.3538 15.0064 6.3538 14.8491 6.52219C14.6917 6.69037 14.6917 6.96303 14.8491 7.13099L17.6927 10.1719L17.4081 10.4767L14.5645 7.43519C14.4071 7.26701 14.1527 7.26701 13.9953 7.43519C13.8379 7.60358 13.8379 7.87582 13.9953 8.044L16.8388 11.0853L16.5542 11.3897L13.7119 8.34882C13.5544 8.18043 13.2993 8.17959 13.1419 8.34798C13.1391 8.35113 13.1383 8.35492 13.1354 8.35786C12.5158 9.03036 12.5172 10.1157 13.1419 10.7849L15.1337 12.9142L14.638 13.4446L9.33144 7.7686C9.85506 7.58045 10.336 7.26785 10.7378 6.83815C12.15 5.32728 12.15 2.86892 10.7378 1.35825C10.0536 0.626256 9.14334 0.223257 8.17609 0.223257C7.20884 0.223257 6.2986 0.626256 5.61419 1.35825C4.62434 2.41736 4.33089 3.94148 4.7295 5.27913C4.3761 5.15868 4.00461 5.09351 3.6229 5.09351C2.65526 5.09351 1.74541 5.49651 1.06159 6.2285C0.377189 6.9605 0 7.93342 0 8.96835C0 10.0035 0.377189 10.9764 1.06159 11.7084C1.74501 12.4398 2.65487 12.8428 3.6225 12.8428ZM11.8959 14.1598L7.23616 9.17605C7.23931 9.10668 7.2454 9.03772 7.2454 8.96793C7.2454 8.83065 7.23734 8.69422 7.22437 8.55946L12.1785 13.8575L11.8959 14.1598ZM6.40572 24.0756C6.35422 24.1307 6.29427 24.1389 6.26322 24.1389C6.23216 24.1389 6.17182 24.1303 6.12072 24.0761C6.04268 23.992 6.04268 23.8555 6.12072 23.7721L12.9317 16.4855L13.2156 16.7891L6.40572 24.0756ZM13.7107 10.1748C13.501 9.95051 13.4345 9.63224 13.5057 9.34507L16.2688 12.3012C16.3473 12.3851 16.4505 12.4274 16.5535 12.4274C16.6564 12.4274 16.7594 12.3851 16.8381 12.3012L17.6905 11.3893L17.6919 11.3884V11.3884L21.1059 7.73665L21.1082 7.73497L21.1098 7.73244L21.9609 6.82218L21.962 6.82134V6.82134L23.6695 4.99449C23.827 4.82631 23.827 4.55407 23.6695 4.38568L20.8264 1.34543L21.1131 1.03871L23.9553 4.08317C23.9583 4.0857 23.9618 4.08654 23.9644 4.08948C24.1128 4.25198 24.1945 4.46494 24.1945 4.69156C24.1945 4.91629 24.1131 5.12714 23.9675 5.2886C23.9634 5.29259 23.9583 5.29385 23.9541 5.29806L15.4899 14.3557L15.2069 14.0526L15.9823 13.2226C16.0233 13.1787 16.0522 13.1278 16.0719 13.074C16.132 12.9182 16.1033 12.7322 15.9846 12.6056L13.7107 10.1748ZM15.2049 15.2685L21.4217 21.9177C21.4251 21.9211 21.4294 21.9225 21.4327 21.9255C21.4359 21.9293 21.4367 21.9341 21.44 21.937C21.966 22.5002 22.0185 23.1629 21.9371 23.6867C21.4471 23.7729 20.8277 23.7178 20.3016 23.1547L20.297 23.1517C20.2923 23.1456 20.2905 23.1387 20.2858 23.1332L12.4651 14.769L13.0131 14.1836C13.0204 14.1766 13.0296 14.1745 13.0363 14.1668C13.1937 13.9984 13.1937 13.7263 13.0363 13.558L7.79399 7.95066C7.91998 7.96495 8.04774 7.97294 8.17609 7.97294C8.24292 7.97294 8.30857 7.96663 8.37461 7.96264L15.2049 15.2685ZM6.18342 1.96706C6.71569 1.39778 7.42328 1.08433 8.17609 1.08433C8.92889 1.08433 9.63649 1.39778 10.1688 1.96706C11.2673 3.142 11.2673 5.05399 10.1688 6.22893C9.63649 6.798 8.92889 7.11144 8.17609 7.11144C7.42741 7.11144 6.72335 6.80073 6.19187 6.23712C6.18912 6.23418 6.18676 6.23103 6.18381 6.22808C6.18106 6.22514 6.17831 6.22283 6.17536 6.21989C5.08527 5.04453 5.08782 3.13948 6.18342 1.96706ZM1.63023 6.83731C2.1621 6.26803 2.8697 5.95458 3.6225 5.95458C4.37158 5.95458 5.07524 6.2655 5.60673 6.82911C5.60948 6.83164 5.61144 6.83521 5.61419 6.83815C5.61714 6.8411 5.62029 6.8432 5.62265 6.84635C6.14961 7.41459 6.44031 8.16761 6.44031 8.96835C6.44031 9.77351 6.14686 10.5301 5.61478 11.0996C5.08291 11.6687 4.37531 11.9821 3.6225 11.9821C2.8697 11.9821 2.1621 11.6683 1.63023 11.0996C1.09815 10.5305 0.804695 9.77351 0.804695 8.96835C0.804695 8.1634 1.09815 7.40639 1.63023 6.83731Z" fill="#505050"/>
<path d="M3.62251 11.5507C4.26819 11.5507 4.87397 11.2821 5.33018 10.7948C6.27167 9.7878 6.27167 8.14868 5.33018 7.14171C4.87397 6.65378 4.2678 6.38554 3.62251 6.38554C2.97722 6.38554 2.37104 6.6542 1.91484 7.14171C0.973339 8.1491 0.973339 9.7878 1.91484 10.7948C2.37104 11.2825 2.97722 11.5507 3.62251 11.5507ZM2.48406 7.75052C2.78793 7.4253 3.19225 7.24661 3.62251 7.24661C4.05277 7.24661 4.45688 7.42572 4.76095 7.75052C5.38895 8.42197 5.38895 9.51472 4.76095 10.186C4.15301 10.8362 3.092 10.8362 2.48406 10.186C1.85646 9.5143 1.85646 8.42197 2.48406 7.75052Z" fill="#505050"/>
<path d="M13.9031 15.5109C14.1252 15.5109 14.3056 15.3184 14.3056 15.0804C14.3056 14.8422 14.1252 14.6498 13.9031 14.6498H13.8986C13.6765 14.6498 13.4986 14.8422 13.4986 15.0804C13.4986 15.3184 13.6808 15.5109 13.9031 15.5109V15.5109Z" fill="#505050"/>
</svg>
