<svg width="25" height="25" viewBox="0 0 25 25" fill="none" xmlns="http://www.w3.org/2000/svg">
<path d="M16.4693 6.45093L12.8609 0.200932C12.7284 0.00160915 12.4595 -0.0526096 12.2601 0.0798904C12.2121 0.111765 12.171 0.152911 12.1391 0.200932L8.53068 6.45093C8.41563 6.6502 8.48391 6.90505 8.68318 7.0201C8.74657 7.05666 8.81844 7.07593 8.89157 7.07593H16.1084C16.3385 7.07598 16.5251 6.88947 16.5251 6.65932C16.5252 6.58619 16.5059 6.51427 16.4693 6.45093ZM9.61323 6.2426L12.5 1.2426L15.3868 6.2426H9.61323Z" fill="#505050"/>
<path d="M24.5835 17.4926C24.5835 17.4926 24.5834 17.4926 24.5833 17.4926H17.9167C17.6866 17.4925 17.5001 17.679 17.5 17.909C17.5 17.9091 17.5 17.9092 17.5 17.9093V24.5759C17.4999 24.806 17.6864 24.9925 17.9165 24.9926C17.9165 24.9926 17.9166 24.9926 17.9167 24.9926H24.5833C24.8134 24.9926 24.9999 24.8062 25 24.5761C25 24.5761 25 24.576 25 24.5759V17.9093C25.0001 17.6792 24.8136 17.4926 24.5835 17.4926ZM24.1667 24.1593H18.3333V18.3259H24.1667V24.1593Z" fill="#505050"/>
<path d="M3.75 17.4926C1.67891 17.4926 0 19.1715 0 21.2426C0 23.3136 1.67891 24.9926 3.75 24.9926C5.82109 24.9926 7.5 23.3136 7.5 21.2426C7.49766 19.1725 5.8201 17.4949 3.75 17.4926ZM3.75 24.1593C2.13917 24.1593 0.833333 22.8534 0.833333 21.2426C0.833333 19.6318 2.13917 18.3259 3.75 18.3259C5.36083 18.3259 6.66667 19.6318 6.66667 21.2426C6.66479 22.8526 5.36005 24.1574 3.75 24.1593Z" fill="#505050"/>
<path d="M8.50707 4.61136L8.15957 3.8537C3.26181 6.10359 0.884932 11.7146 2.67618 16.798L3.46191 16.5205C1.81426 11.8435 4.00113 6.68146 8.50707 4.61136Z" fill="#505050"/>
<path d="M16.0937 22.2131C14.952 22.675 13.7316 22.9114 12.5 22.9092C11.1798 22.9121 9.87358 22.6402 8.66415 22.1109L8.33051 22.8742C10.8987 23.9922 13.8083 24.0322 16.4063 22.9853L16.0937 22.2131Z" fill="#505050"/>
<path d="M17.5473 4.21192L17.5474 4.21176C17.4571 4.16171 17.3658 4.11249 17.2738 4.06525L16.8929 4.80661C16.9767 4.84973 17.0598 4.89421 17.1422 4.94005L17.3448 4.57588L17.1426 4.94005C20.19 6.63083 22.0813 9.84083 22.0834 13.3259C22.0841 14.273 21.9446 15.215 21.6694 16.1213L22.4665 16.3638C23.8952 11.6601 21.8458 6.59729 17.5473 4.21192Z" fill="#505050"/>
</svg>
