<svg width="25" height="25" viewBox="0 0 25 25" fill="none" xmlns="http://www.w3.org/2000/svg">
<path d="M9.85617 14.4823H8.34439V12.8213C8.34439 12.705 8.30234 12.5934 8.22748 12.5111C8.15263 12.4289 8.0511 12.3827 7.94524 12.3827H6.24027C6.1344 12.3827 6.03288 12.4289 5.95802 12.5111C5.88316 12.5934 5.84111 12.705 5.84111 12.8213V14.4823H4.32933C4.22347 14.4823 4.12194 14.5285 4.04709 14.6108C3.97223 14.6931 3.93018 14.8046 3.93018 14.9209V16.7948C3.93018 16.9111 3.97223 17.0227 4.04709 17.1049C4.12194 17.1872 4.22347 17.2334 4.32933 17.2334H5.84111V18.8947C5.84111 19.011 5.88316 19.1226 5.95802 19.2048C6.03288 19.2871 6.1344 19.3333 6.24027 19.3333H7.94524C8.0511 19.3333 8.15263 19.2871 8.22748 19.2048C8.30234 19.1226 8.34439 19.011 8.34439 18.8947V17.2334H9.85617C9.96203 17.2334 10.0636 17.1872 10.1384 17.1049C10.2133 17.0227 10.2553 16.9111 10.2553 16.7948V14.9222C10.2555 14.8645 10.2453 14.8073 10.2253 14.754C10.2053 14.7006 10.1759 14.6521 10.1388 14.6112C10.1017 14.5704 10.0577 14.538 10.0092 14.5158C9.96068 14.4937 9.90869 14.4823 9.85617 14.4823ZM9.45701 16.3561H7.94524C7.83937 16.3561 7.73785 16.4023 7.66299 16.4846C7.58813 16.5669 7.54608 16.6784 7.54608 16.7948V18.4563H6.63942V16.7948C6.63942 16.6784 6.59737 16.5669 6.52251 16.4846C6.44766 16.4023 6.34613 16.3561 6.24027 16.3561H4.72849V15.3596H6.24027C6.34613 15.3596 6.44766 15.3134 6.52251 15.2311C6.59737 15.1488 6.63942 15.0373 6.63942 14.9209V13.2599H7.54608V14.9222C7.54608 15.0385 7.58813 15.1501 7.66299 15.2324C7.73785 15.3146 7.83937 15.3608 7.94524 15.3608H9.45701V16.3561Z" fill="#505050"/>
<path d="M24.3609 20.9252L22.5841 19.0168L20.8073 17.1084C20.4051 16.6779 19.8641 16.44 19.3027 16.4471C18.7413 16.4541 18.2053 16.7055 17.8122 17.146L17.7372 17.2303C17.39 17.6201 17.1787 18.1317 17.1402 18.6755C17.1016 19.2193 17.2384 19.7607 17.5264 20.2049H13.4591V10.2606C13.4593 9.71201 13.3514 9.16988 13.1427 8.67152C12.934 8.17315 12.6295 7.73039 12.2502 7.37369C11.9586 7.09924 11.7245 6.75863 11.564 6.37528C11.4036 5.99193 11.3206 5.57494 11.3208 5.15298V3.83084H11.8566C11.9624 3.83084 12.064 3.78463 12.1388 3.70237C12.2137 3.62011 12.2557 3.50854 12.2557 3.39221V0.438626C12.2557 0.322296 12.2137 0.210729 12.1388 0.128471C12.064 0.0462124 11.9624 0 11.8566 0H1.60256C1.4967 0 1.39517 0.0462124 1.32031 0.128471C1.24546 0.210729 1.2034 0.322296 1.2034 0.438626V3.39221C1.2034 3.50854 1.24546 3.62011 1.32031 3.70237C1.39517 3.78463 1.4967 3.83084 1.60256 3.83084H2.13834V5.15298C2.13854 5.57494 2.05557 5.99194 1.89512 6.37529C1.73467 6.75864 1.50055 7.09925 1.20888 7.37369C0.829609 7.73041 0.525162 8.17318 0.316478 8.67154C0.107794 9.1699 -0.000174164 9.71201 2.10882e-07 10.2606V22.5978C0.0004231 23.2287 0.228683 23.8336 0.634656 24.2797C1.04063 24.7259 1.59112 24.9767 2.16526 24.9771H11.2939C11.5459 24.9767 11.7959 24.9276 12.0324 24.832C12.266 24.9275 12.5131 24.9767 12.7623 24.9771H17.7324C18.2781 24.9761 18.8024 24.7438 19.1961 24.3286C19.5898 23.9134 19.8225 23.3473 19.8459 22.7482L21.3266 24.3385C21.7287 24.7691 22.2698 25.0069 22.8312 24.9999C23.3926 24.9928 23.9286 24.7415 24.3217 24.3009L24.3967 24.2167C24.5911 23.9981 24.7445 23.7396 24.8479 23.4558C24.9514 23.1721 25.0031 22.8688 24.9999 22.5631C24.9967 22.2575 24.9387 21.9555 24.8293 21.6745C24.7199 21.3935 24.5612 21.1389 24.3623 20.9252H24.3609ZM18.3072 17.8423L18.3822 17.7581C18.6271 17.4834 18.9611 17.3267 19.311 17.3223C19.6609 17.3179 19.9981 17.4661 20.2487 17.7345L21.7404 19.3367L19.8208 21.4952L18.3291 19.8931C18.0787 19.6243 17.9358 19.2572 17.9317 18.8726C17.9277 18.488 18.0628 18.1174 18.3074 17.8423H18.3072ZM0.798999 11.3887H12.6597V20.2044H0.798999V11.3887ZM8.87087 2.95359V0.877253H9.81447V2.95359H8.87087ZM7.12894 2.95359V0.877253H8.07255V2.95359H7.12894ZM5.38702 2.95359V0.877253H6.33017V2.95359H5.38702ZM3.6451 2.95359V0.877253H4.58871V2.95359H3.6451ZM11.4579 2.95359H10.6128V0.877253H11.4581L11.4579 2.95359ZM2.00172 0.877253H2.84702V2.95359H2.00172V0.877253ZM1.72801 8.03965C2.10728 7.68298 2.41173 7.24026 2.62042 6.74194C2.82911 6.24362 2.93707 5.70154 2.93688 5.15298V3.83084H10.5231V5.15298C10.523 5.70153 10.631 6.24361 10.8397 6.74192C11.0483 7.24024 11.3528 7.68296 11.732 8.03965C12.0237 8.31409 12.2578 8.65469 12.4183 9.03805C12.5787 9.4214 12.6617 9.8384 12.6615 10.2604V10.511H0.800823V10.2604C0.800441 9.83856 0.883155 9.42167 1.04328 9.03834C1.20341 8.65501 1.43716 8.31431 1.72846 8.03965H1.72801ZM0.798999 22.5978V21.0816H11.1073C10.8067 21.4929 10.6429 22.0046 10.6431 22.5321V22.6497C10.643 23.1771 10.8067 23.6887 11.1073 24.0999H2.16617C1.80372 24.0995 1.45622 23.9411 1.19991 23.6595C0.943605 23.3779 0.799421 22.9961 0.798999 22.5978ZM11.4412 22.6497V22.5321C11.4416 22.1476 11.5807 21.7789 11.8281 21.507C12.0755 21.2351 12.411 21.0821 12.7609 21.0816H14.8468V24.0999H12.7609C12.4111 24.0994 12.0756 23.9465 11.8282 23.6746C11.5808 23.4028 11.4416 23.0341 11.4412 22.6497ZM19.0507 22.6497C19.0503 23.0341 18.9111 23.4028 18.6637 23.6746C18.4163 23.9465 18.0809 24.0994 17.731 24.0999H15.6451V21.0816H17.731C18.0809 21.0821 18.4164 21.2351 18.6638 21.507C18.9112 21.7789 19.0504 22.1476 19.0507 22.5321V22.6497ZM23.8244 23.6036L23.7494 23.6878C23.6285 23.8245 23.4842 23.9334 23.3248 24.0083C23.1654 24.0832 22.994 24.1226 22.8206 24.1242C22.647 24.1289 22.4744 24.0948 22.3132 24.0238C22.1521 23.9528 22.0057 23.8465 21.8832 23.7114L20.3915 22.1093L22.3111 19.9507L23.8028 21.5529C24.0531 21.8217 24.1959 22.1887 24.2 22.5733C24.2041 22.9579 24.069 23.3285 23.8244 23.6036Z" fill="#505050"/>
</svg>
