<svg width="25" height="25" viewBox="0 0 25 25" fill="none" xmlns="http://www.w3.org/2000/svg">
<g clip-path="url(#clip0)">
<path d="M7.97488 19.4454C6.53341 19.4454 5.36493 20.614 5.36493 22.0554C5.36493 23.4969 6.53347 24.6653 7.97488 24.6653C9.41635 24.6653 10.5848 23.4968 10.5848 22.0554C10.5849 20.614 9.41635 19.4454 7.97488 19.4454ZM7.97488 23.5054C7.17408 23.5054 6.52492 22.8562 6.52492 22.0554C6.52492 21.2546 7.17408 20.6055 7.97488 20.6055C8.77569 20.6055 9.42485 21.2546 9.42485 22.0554C9.4249 22.8562 8.77569 23.5054 7.97488 23.5054Z" fill="#505050"/>
<path d="M18.9948 19.4454C17.5534 19.4454 16.3849 20.614 16.3849 22.0554C16.3849 23.4969 17.5534 24.6653 18.9948 24.6653C20.4363 24.6653 21.6048 23.4968 21.6048 22.0554C21.6048 20.614 20.4363 19.4454 18.9948 19.4454ZM18.9948 23.5054C18.194 23.5054 17.5449 22.8562 17.5449 22.0554C17.5449 21.2546 18.194 20.6055 18.9948 20.6055C19.7956 20.6055 20.4448 21.2546 20.4448 22.0554C20.4449 22.8562 19.7956 23.5054 18.9948 23.5054Z" fill="#505050"/>
<path d="M24.8818 4.22061C24.761 4.08867 24.5958 4.00607 24.4178 3.98859L5.53897 3.72759L5.01698 2.13259C4.64924 1.06635 3.65078 0.346533 2.52298 0.334599H0.579997C0.259664 0.334599 0 0.594262 0 0.914594C0 1.23493 0.259664 1.49459 0.579997 1.49459H2.52298C3.1536 1.50852 3.70889 1.91345 3.91499 2.5096L7.59796 13.6165L7.30799 14.2835C6.98455 15.1175 7.08169 16.0563 7.56899 16.8064C8.05162 17.5432 8.86359 17.998 9.74399 18.0244H21.0249C21.3453 18.0244 21.6049 17.7648 21.6049 17.4444C21.6049 17.1241 21.3453 16.8644 21.0249 16.8644H9.74393C9.24675 16.852 8.78909 16.5905 8.52593 16.1684C8.26572 15.7516 8.21226 15.238 8.38095 14.7764L8.61297 14.2544L20.8219 12.9784C22.1629 12.8307 23.2661 11.8554 23.5769 10.5424L24.9689 4.71351C25.0316 4.54566 24.9983 4.35688 24.8818 4.22061ZM22.4459 10.2815C22.2576 11.1267 21.54 11.7501 20.6769 11.8185L8.61297 13.0655L5.91598 4.88758L23.6928 5.14858L22.4459 10.2815Z" fill="#505050"/>
</g>
<defs>
<clipPath id="clip0">
<rect width="25" height="25" fill="white"/>
</clipPath>
</defs>
</svg>
