<svg width="25" height="25" viewBox="0 0 25 25" fill="none" xmlns="http://www.w3.org/2000/svg">
<g clip-path="url(#clip0)">
<path d="M12.6296 6.74603L11.6849 0.444039C11.6474 0.187791 11.4276 0.000292968 11.1703 0.000292968C11.1651 0.000292968 11.1588 0.000292968 11.1526 0.000292968C10.889 0.0086425 10.6734 0.213816 10.6515 0.477388L10.1953 5.94819C10.1672 6.28569 9.5682 6.28569 9.54007 5.94819L9.08383 0.47734C9.06195 0.207567 8.83593 0.000244141 8.56508 0.000244141C8.29424 0.000244141 8.06821 0.207518 8.04736 0.47734L7.59112 5.94814C7.56299 6.28564 6.96403 6.28564 6.9359 5.94814L6.4797 0.47734C6.45783 0.214842 6.24221 0.00961906 5.97868 0.000244141C5.97243 0.000244141 5.96618 0.000244141 5.96096 0.000244141C5.70369 0.000244141 5.48386 0.187742 5.44534 0.44399L4.50057 6.74603C4.22348 8.59289 5.22557 10.3585 6.91515 11.096L6.11101 22.3667C6.06311 23.0449 6.3006 23.7188 6.76413 24.2167C7.22662 24.7146 7.88286 25.0001 8.56723 25.0001C9.24745 25.0001 9.90369 24.7147 10.3672 24.2167C10.8307 23.7188 11.0682 23.0449 11.0203 22.3667L10.2162 11.096C11.9057 10.3596 12.9078 8.59289 12.6296 6.74603ZM9.50677 10.2512C9.27865 10.3252 9.13075 10.545 9.1474 10.7835L9.97864 22.4407C10.0078 22.8365 9.8745 23.2157 9.60365 23.5063C9.06405 24.0865 8.07031 24.0928 7.52452 23.5063C7.25475 23.2157 7.1214 22.8375 7.14952 22.4407L7.98179 10.7824C7.99741 10.5439 7.85054 10.3241 7.62242 10.2502C6.18908 9.78663 5.30892 8.37727 5.53079 6.90018L5.81306 5.01895L5.89743 6.03559C5.95578 6.73974 6.55578 7.29183 7.26305 7.29183C7.86201 7.29183 8.38388 6.89598 8.56513 6.34599C8.74638 6.89598 9.26825 7.29183 9.86722 7.29183C10.5735 7.29183 11.1745 6.73974 11.2328 6.03662L11.3172 5.01998L11.5995 6.90121C11.8213 8.37834 10.9411 9.78771 9.50677 10.2512Z" fill="#505050"/>
<path d="M20.3244 0.0950118C20.1869 -0.00288765 20.0098 -0.0258367 19.8504 0.0293874C19.8056 0.0450123 15.3369 1.68665 15.3369 6.76995C15.3369 10.4293 16.5265 12.2772 17.1973 13.0272L16.5307 13.6938C16.4453 13.7792 16.3921 13.8907 16.3807 14.0105L15.5567 22.251C15.4848 22.952 15.7161 23.6541 16.189 24.177C16.6619 24.6999 17.3379 24.9999 18.0431 24.9999C19.4222 24.9999 20.5441 23.878 20.5452 22.4989V0.520008C20.5452 0.351259 20.4629 0.192911 20.3244 0.0950118ZM19.5015 22.5C19.5015 23.3042 18.8473 23.9584 18.0431 23.9584C17.6265 23.9584 17.2421 23.7875 16.9619 23.4781C16.6817 23.1688 16.5504 22.7698 16.5921 22.3553L17.3973 14.3001L18.3067 13.3897C18.414 13.2824 18.4671 13.1324 18.4557 12.9814C18.4442 12.8303 18.3661 12.6897 18.2442 12.5991C18.2255 12.5856 16.3765 11.1658 16.3765 6.77102C16.3765 3.55333 18.3963 1.97004 19.5015 1.34505V22.5Z" fill="#505050"/>
</g>
<defs>
<clipPath id="clip0">
<rect width="25" height="25" fill="white"/>
</clipPath>
</defs>
</svg>
